<svg xmlns="http://www.w3.org/2000/svg" width="47.227" height="30.001" viewBox="0 0 47.227 30.001">
  <path id="Union_5" data-name="Union 5" d="M0,15A15,15,0,0,1,25.093,3.9c-3.139,2.965-3.036,3.141-4.271,4.375A8.5,8.5,0,0,0,15,6.089,8.786,8.786,0,0,0,6.237,15,8.785,8.785,0,0,0,15,23.911c4.863,0,6.838-2.1,8.109-5.948-2.346,0-8.109.008-8.109.008V12.03H29.4C30.409,19.219,27.382,30,15,30A15,15,0,0,1,0,15Zm38.316,6.386V16.041H32.97V12.327h5.346v-5.2h3.713v5.2h5.2v3.713h-5.2v5.346Z" fill="#3d58a6"/>
</svg>
